# xmcd
#
# Track frame offsets:
#	150
#	14711
#	25867
#	39367
#	50089
#	60667
#	74552
#	85732
#	96276
#	107342
#	118770
#	128936
#	139246
#	151431
#	160971
#	170936
#	181007
#	190302
#	200822
#	213941
#	230494
#	243723
#	253328
#	266860
#	283000
#	299681
#	311142
#
# Disc length: 4291 seconds
#
# Revision: 0
# Processed by: cddbd v1.5.2PL0 Copyright (c) Steve Scherf et al.
# Submitted via: audiograbber 1.83.01
#
DISCID=af10c11b
DTITLE=Little Mac - Chicago Blues Harmonica Wizard
DYEAR=1994
DGENRE=Blues
TTITLE0=My Walking Blues
TTITLE1=Jumping At Cadillac
TTITLE2=I Need You
TTITLE3=Times Are Getting Tougher
TTITLE4=Don't Come Back
TTITLE5=You Mistreated Me
TTITLE6=Broken Heart
TTITLE7=I Need Love
TTITLE8=I Play For Keeps
TTITLE9=I'm Happy Now
TTITLE10=Don't Leave Me Now
TTITLE11=Mother In Law Blues
TTITLE12=Woman Help Me
TTITLE13=Drivin' Weel
TTITLE14=Broken Heart
TTITLE15=I'm Your Fool
TTITLE16=Let Hootenanny Blues
TTITLE17=Never Leave Me Homework Undone
TTITLE18=Givin' Me A Hard Time
TTITLE19=Blue Light
TTITLE20=You're So Fine
TTITLE21=Trouble No More
TTITLE22=I'm Tore Down
TTITLE23=The Sky Is Crying
TTITLE24=Hoochie Coochie Man
TTITLE25=Key To The Highway
TTITLE26=Inflation Blues
EXTD=
EXTT0=
EXTT1=
EXTT2=
EXTT3=
EXTT4=
EXTT5=
EXTT6=
EXTT7=
EXTT8=
EXTT9=
EXTT10=
EXTT11=
EXTT12=
EXTT13=
EXTT14=
EXTT15=
EXTT16=
EXTT17=
EXTT18=
EXTT19=
EXTT20=
EXTT21=
EXTT22=
EXTT23=
EXTT24=
EXTT25=
EXTT26=
PLAYORDER=
